<?xml version="1.0" standalone="no"?>
<!DOCTYPE svg PUBLIC "-//W3C//DTD SVG 20010904//EN"
 "http://www.w3.org/TR/2001/REC-SVG-20010904/DTD/svg10.dtd">
<svg version="1.0" xmlns="http://www.w3.org/2000/svg"
 width="415.000000pt" height="247.000000pt" viewBox="0 0 415.000000 247.000000"
 preserveAspectRatio="xMidYMid meet">

<g transform="translate(0.000000,247.000000) scale(0.100000,-0.100000)"
fill="#000000" stroke="none">
<path d="M1750 1021 c0 -354 3 -541 10 -541 7 0 10 185 10 534 0 346 -4 537
-10 541 -7 4 -10 -177 -10 -534z"/>
<path d="M2031 1393 c87 -152 89 -155 89 -220 0 -56 2 -63 20 -63 18 0 20 7
20 64 0 59 4 72 51 153 73 126 72 123 57 123 -7 0 -35 -40 -63 -89 -27 -50
-52 -88 -56 -85 -4 2 -28 42 -54 89 -39 72 -50 85 -71 85 l-25 0 32 -57z"/>
<path d="M2840 1280 c0 -163 1 -170 20 -170 18 0 20 7 20 88 0 102 14 132 60
132 46 0 60 -30 60 -132 0 -83 1 -88 21 -88 20 0 21 4 17 101 -3 97 -4 102
-32 126 -33 28 -75 26 -108 -4 -17 -15 -18 -13 -18 50 0 60 -2 67 -20 67 -19
0 -20 -7 -20 -170z"/>
<path d="M2374 1346 c-38 -17 -51 -34 -30 -42 8 -3 24 4 35 15 26 26 77 28 89
4 13 -26 23 -83 14 -83 -4 0 -16 7 -26 15 -49 37 -136 -7 -136 -69 0 -69 62
-102 133 -72 21 8 37 11 37 5 0 -5 7 -9 15 -9 12 0 15 17 15 96 0 108 -7 127
-51 143 -41 14 -57 13 -95 -3z m95 -122 c27 -34 26 -50 -4 -79 -30 -31 -69
-32 -89 -3 -22 31 -20 64 4 88 28 28 64 25 89 -6z"/>
<path d="M2640 1353 c-51 -19 -66 -75 -29 -109 11 -10 42 -26 67 -35 35 -11
48 -21 50 -38 8 -53 -61 -70 -102 -26 -21 23 -46 33 -46 19 0 -59 138 -84 175
-31 34 49 8 94 -68 117 -68 20 -83 42 -51 74 21 22 57 20 79 -4 24 -27 50 -27
36 -1 -16 29 -75 47 -111 34z"/>
<path d="M2000 760 c0 -163 1 -170 20 -170 18 0 20 7 20 70 l0 70 49 0 c27 0
61 4 75 10 72 27 78 147 9 179 -13 6 -57 11 -98 11 l-75 0 0 -170z m155 125
c56 -55 15 -135 -70 -135 l-45 0 0 80 0 80 45 0 c35 0 52 -6 70 -25z"/>
<path d="M3300 760 c0 -163 1 -170 20 -170 17 0 20 7 20 49 0 80 20 83 77 12
33 -42 55 -61 71 -61 12 0 22 2 22 6 0 3 -25 37 -57 75 l-56 70 44 45 c24 24
37 44 29 44 -8 0 -40 -26 -72 -57 l-58 -57 0 107 c0 100 -1 107 -20 107 -19 0
-20 -7 -20 -170z"/>
<path d="M2314 830 c-29 -11 -39 -29 -25 -43 8 -8 15 -5 27 11 34 48 114 17
114 -45 0 -24 -14 -31 -25 -13 -7 11 -74 14 -100 4 -19 -8 -45 -55 -45 -84 0
-11 11 -32 25 -45 27 -28 80 -34 118 -14 16 9 22 9 25 0 2 -6 12 -11 23 -11
17 0 19 8 19 78 0 100 -13 146 -46 160 -29 14 -79 15 -110 2z m101 -123 c30
-42 12 -85 -42 -101 -26 -8 -73 31 -73 59 0 64 79 93 115 42z"/>
<path d="M2608 823 c-11 -11 -18 -13 -18 -5 0 7 -9 12 -20 12 -19 0 -20 -7
-20 -121 0 -109 2 -120 18 -117 14 3 18 18 22 98 3 52 9 101 14 109 6 9 20 11
43 8 28 -5 34 -3 31 11 -4 23 -49 27 -70 5z"/>
<path d="M2778 824 c-77 -41 -75 -183 3 -224 30 -17 126 -8 146 13 22 21 9 35
-14 15 -29 -24 -54 -29 -90 -17 -31 10 -63 50 -63 79 0 6 36 10 96 10 l97 0
-6 36 c-15 89 -93 130 -169 88z m106 -23 c9 -10 19 -32 22 -49 l7 -32 -77 0
c-45 0 -76 4 -76 10 0 6 7 26 15 45 22 53 74 65 109 26z"/>
<path d="M3053 820 c-58 -35 -69 -139 -19 -196 30 -36 113 -45 162 -19 19 10
31 22 28 26 -2 5 -23 -1 -44 -12 -33 -18 -45 -19 -71 -10 -37 13 -58 37 -59
69 0 21 3 22 90 22 l90 0 0 28 c0 88 -99 140 -177 92z m108 -19 c17 -17 29
-40 29 -55 0 -26 -1 -26 -74 -26 l-74 0 8 34 c10 44 17 56 44 66 32 13 35 12
67 -19z"/>
</g>
</svg>
